<?xml version="1.0" standalone="no"?><!DOCTYPE svg PUBLIC "-//W3C//DTD SVG 1.1//EN" "http://www.w3.org/Graphics/SVG/1.1/DTD/svg11.dtd"><svg class="icon" width="16px" height="16.00px" viewBox="0 0 1024 1024" version="1.1" xmlns="http://www.w3.org/2000/svg"><path fill="#ffffff" d="M512 42.666667c259.206667 0 469.333333 210.126667 469.333333 469.333333s-210.126667 469.333333-469.333333 469.333333S42.666667 771.206667 42.666667 512 252.793333 42.666667 512 42.666667z m-31.333333 496.126666l181.333333 175.96a37.333333 37.333333 0 0 0 63.333333-26.786666v-351.933334a37.333333 37.333333 0 0 0-63.333333-26.786666L480.666667 485.206667a37.333333 37.333333 0 0 0 0 53.586666z m-256 0l181.333333 175.96a37.333333 37.333333 0 0 0 63.333333-26.753333V336.033333a37.333333 37.333333 0 0 0-63.333333-26.786666L224.666667 485.206667a37.333333 37.333333 0 0 0 0 53.586666z"  /></svg>