<?xml version="1.0" standalone="no"?><!DOCTYPE svg PUBLIC "-//W3C//DTD SVG 1.1//EN" "http://www.w3.org/Graphics/SVG/1.1/DTD/svg11.dtd"><svg class="icon" width="16px" height="16.00px" viewBox="0 0 1024 1024" version="1.1" xmlns="http://www.w3.org/2000/svg"><path fill="#ffffff" d="M512 42.666667c259.206667 0 469.333333 210.126667 469.333333 469.333333s-210.126667 469.333333-469.333333 469.333333S42.666667 771.206667 42.666667 512 252.793333 42.666667 512 42.666667zM400.786667 543.16l266.666666 176A37.333333 37.333333 0 0 0 725.333333 688V336.033333a37.333333 37.333333 0 0 0-57.893333-31.16l-266.666667 176a37.333333 37.333333 0 0 0 0 62.32zM298.666667 704a21.333333 21.333333 0 0 0 42.666666 0V320a21.333333 21.333333 0 0 0-42.666666 0z"  /></svg>